<?xml version="1.0" encoding="UTF-8" standalone="no"?>
<svg
   xml:space="preserve"
   width="1280.0201"
   height="1280.0164"
   version="1.1"
   id="svg2"
   sodipodi:docname="discord_logo_round.svg"
   viewBox="0 0 1789.5872 1789.5819"
   inkscape:version="1.3 (0e150ed6c4, 2023-07-21)"
   xmlns:inkscape="http://www.inkscape.org/namespaces/inkscape"
   xmlns:sodipodi="http://sodipodi.sourceforge.net/DTD/sodipodi-0.dtd"
   xmlns="http://www.w3.org/2000/svg"
   xmlns:svg="http://www.w3.org/2000/svg"><defs
     id="defs2" /><sodipodi:namedview
     id="namedview2"
     pagecolor="#ffffff"
     bordercolor="#000000"
     borderopacity="0.25"
     inkscape:showpageshadow="2"
     inkscape:pageopacity="0.0"
     inkscape:pagecheckerboard="0"
     inkscape:deskcolor="#d1d1d1"
     inkscape:zoom="0.45428462"
     inkscape:cx="895.91411"
     inkscape:cy="894.81348"
     inkscape:window-width="1920"
     inkscape:window-height="1009"
     inkscape:window-x="-8"
     inkscape:window-y="-8"
     inkscape:window-maximized="1"
     inkscape:current-layer="svg2" /><path
     d="m 894.7963,1789.5819 c 492.841,0 894.791,-401.9499 894.791,-894.79094 C 1789.5873,401.94995 1387.6373,0 894.7963,0 401.96195,0 0,401.94995 0,894.79096 0,1387.632 401.96195,1789.5819 894.7963,1789.5819"
     style="fill:#5765ec;fill-opacity:1;fill-rule:evenodd;stroke:none;stroke-width:0.13333"
     id="path1" /><path
     d="m 1021.2198,532.49335 c -83.62457,-12.75968 -169.27577,-12.75968 -252.90034,0 -7.55981,-18.14621 -18.7062,-40.29232 -28.49262,-57.59856 -1.71996,-2.97326 -6.30385,-1.22663 -9.06644,-0.69331 -42.68827,8.71978 -210.21075,51.93203 -221.17847,70.07825 -121.03431,180.82214 -167.91581,357.84438 -168.03047,532.74667 -0.0347,30.0659 1.36797,60.1052 3.94657,90.0778 0.71865,7.9198 -0.79065,7.3731 5.37586,11.853 93.43767,68.065 184.01407,109.6106 272.93585,137.2366 1.4293,0.4399 2.97326,-0.067 3.8679,-1.28 21.2928,-29.0393 40.25233,-59.6785 56.52659,-91.9044 0.96531,-1.8933 0.036,-4.1199 -1.90262,-4.8799 -30.10592,-11.4263 -58.7452,-25.3327 -86.30718,-41.1456 -2.18528,-1.2533 -2.36127,-4.3599 -0.35999,-5.8665 5.81319,-4.3332 11.61838,-8.8531 17.13424,-13.453 1.00664,-0.8267 2.40394,-1 3.58791,-0.4533 180.1755,82.2912 376.66392,82.2912 556.83271,0 1.1867,-0.5467 2.5733,-0.3734 3.5866,0.4533 5.5199,4.5999 11.3197,9.1198 17.1329,13.453 2,1.5066 1.8266,4.6132 -0.36,5.8665 -27.5593,15.8129 -56.1986,29.7193 -86.3045,41.1456 -1.9333,0.76 -2.8666,2.9866 -1.9066,4.8799 16.2796,32.2259 35.2391,62.8651 56.5319,91.9044 0.8933,1.2133 2.44,1.7199 3.8666,1.28 88.9178,-27.626 179.5022,-69.1716 272.9398,-137.2366 6.1599,-4.4799 4.6532,-3.9332 5.3732,-11.853 2.5733,-29.9726 3.9733,-60.0119 3.9466,-90.0778 -0.12,-174.90229 -46.9988,-351.92453 -168.0358,-532.74667 -10.9597,-18.14622 -178.4889,-61.35847 -221.1811,-70.07825 -2.76,-0.53332 -7.3465,-2.27995 -9.0665,0.69331 -9.7864,17.30624 -20.9328,39.45235 -28.4926,57.59856 m 57.0919,515.78715 c 54.5186,0 99.4242,-50.02546 99.4242,-111.50392 0,-61.46513 -44.0389,-111.50388 -99.4242,-111.50388 -55.8386,0 -100.31748,50.5054 -99.41084,111.50388 0,61.47846 44.03894,111.50392 99.41084,111.50392 m -367.08148,0 c -54.5173,0 -99.42552,-50.02546 -99.42552,-111.50392 0,-61.46513 44.04824,-111.50388 99.42552,-111.50388 55.83594,0 100.31482,50.5054 99.42151,111.50388 0,61.47846 -44.05223,111.50392 -99.42151,111.50392"
     style="fill:#ffffff;fill-opacity:1;fill-rule:evenodd;stroke:none;stroke-width:0.13333"
     id="path2" /></svg>
